<svg xmlns="http://www.w3.org/2000/svg" width="36" height="24" viewBox="0 12.969 36 24"><path fill="#E6B821" d="M26.616 28.597a2.73 2.73 0 0 0-.307-1.186l-1.394-2.636a.03.03 0 0 0-.028-.029l-.031-.014c-.849-1.611-4.99-9.492-5.079-9.652-.103-.176-.778-1.479-2.301-1.537-1.479-.044-2.358 1.492-2.358 1.492l-5.082 9.697-.014.014c-.014 0-.03.014-.03.029l-1.391 2.636c-.19.353-.292.761-.308 1.186a2.574 2.574 0 0 0 2.52 2.637 2.576 2.576 0 0 0 2.342-1.406l3.603-6.853v-.029c0-.016 0-.031-.014-.031a1.689 1.689 0 0 1-.425-.32 1.123 1.123 0 0 1-.22-.309c0-.014 0-.014-.014-.014a1.541 1.541 0 0 1-.176-.733c0-.864.704-1.567 1.553-1.567.864 0 1.494.703 1.494 1.567 0 .265-.043.513-.146.733a.03.03 0 0 0-.028.028c0 .016 0 .016.014.029l-.133.221h-.013c-.015 0-.015 0-.03.015a2.084 2.084 0 0 1-.483.381c-.014.014-.014.014-.014.029v.027l3.601 6.856a2.522 2.522 0 0 0 2.344 1.403c1.45-.056 2.576-1.244 2.548-2.664z"/><path d="M16.291 22.534c.118.132.323.294.483.38.016.016.016.016.016.031v.029l-3.603 6.853a2.532 2.532 0 0 1-2.344 1.406 2.582 2.582 0 0 1-2.519-2.637c.014-.425.117-.833.308-1.186l1.391-2.636a.03.03 0 0 1 .03-.029l6.047-2.489h.016c.015 0 .028.015.028.028 0 .015 0 .015-.014.03l-1.859 1.274c-.03.014-.03.058-.016.072l.074.118c.015.028.058.028.073.014l1.861-1.244c-.001-.014.013-.014.028-.014-.015-.014 0-.014 0 0zm-.381-1.126c.014 0 .03 0 .03-.017 0-.015-.016-.015-.016-.028l-2.196-.484c-.028 0-.058-.028-.043-.059l.029-.131c0-.029.044-.043.073-.043l2.211.438c.015 0 .03-.016.03-.03 0-.014 0-.014-.016-.027l-3.25-1.379h-.016c-.014 0-.014 0-.028.016l-.894 1.699v.014c0 .015.015.031.03.031h4.056zm0 .291c.014 0 .014-.016.014-.029s-.014-.029-.028-.029h-4.218c-.03 0-.044.016-.044.029l-1.42 2.695v.014c0 .016.014.03.03.03h.014l5.727-2.387.014-.017c0-.013-.014-.027-.029-.027h-.014l-2.212.426a.083.083 0 0 1-.072-.045l-.014-.132c0-.03.014-.06.044-.06l2.208-.468zm.176-.892l-3.236-1.348c-.016 0-.016-.015-.016-.029v-.014l.806-1.539s.016-.014.03-.014h.015l2.592 2.621v.014a.03.03 0 0 1-.03.03h-.014l-1.875-1.261c-.028-.014-.058-.014-.073.016l-.075.117c-.014.029-.014.059.016.074l1.859 1.288.014.015c.017.015.001.03-.013.03zm.381-.499l-2.666-2.694-.015-.014v-.016l1.069-2.021c0-.015.014-.015.03-.015.014 0 .014 0 .028.015l1.86 4.554v.017c0 .013-.015.028-.029.028-.016 0-.016 0-.016-.016l-1.258-1.889c-.015-.028-.058-.028-.074-.014l-.117.072c-.03.016-.03.06-.014.074l1.245 1.903v.014a.03.03 0 0 1-.03.03c0-.013 0-.028-.013-.028zm.541-.307l-1.947-4.744c0-.017-.015-.017-.015-.03v-.03l.103-.204c.411-.806 1.186-1.407 2.168-1.435a.03.03 0 0 1 .028.028v6.358c0 .014-.014.027-.028.027-.015 0-.03-.014-.03-.027l-.424-2.242c0-.028-.029-.059-.059-.044l-.132.03c-.029 0-.044.043-.044.074l.424 2.239a.03.03 0 0 1-.028.028s0-.013-.016-.028zm1.627 2.533a2.024 2.024 0 0 1-.484.38c-.015.016-.015.016-.015.031v.029l3.604 6.853a2.514 2.514 0 0 0 2.344 1.406 2.579 2.579 0 0 0 2.517-2.637 2.639 2.639 0 0 0-.309-1.186l-1.39-2.636a.03.03 0 0 0-.029-.029l-6.047-2.489h-.016c-.015 0-.028.015-.028.028 0 .015 0 .015.014.03l1.858 1.274c.031.014.031.058.019.072l-.075.118c-.013.028-.058.028-.072.014l-1.862-1.244c-.002-.014-.015-.014-.029-.014.027-.014.014-.014 0 0zm.394-1.126c-.014 0-.03 0-.03-.017 0-.015.017-.015.017-.028l2.197-.484c.028 0 .057-.028.045-.059l-.032-.131c0-.029-.044-.043-.072-.043l-2.212.438c-.015 0-.028-.016-.028-.03 0-.014 0-.014.014-.027l3.249-1.379h.019c.013 0 .013 0 .026.016l.894 1.699v.014c0 .015-.014.031-.026.031h-4.061zm-.013.291c-.017 0-.017-.016-.017-.029s.017-.029.03-.029h4.217c.031 0 .043.016.043.029l1.423 2.695v.014a.03.03 0 0 1-.031.03h-.013l-5.727-2.387-.015-.017c0-.013.015-.027.029-.027h.016l2.21.426c.031 0 .06-.017.076-.045l.012-.132c0-.03-.012-.06-.044-.06l-2.209-.468zm-.162-.892l3.237-1.348c.016 0 .016-.015.016-.029v-.014l-.806-1.539s-.016-.014-.031-.014h-.012l-2.596 2.621v.014c0 .016.017.03.03.03h.015l1.877-1.261c.024-.014.057-.014.069.016l.075.117c.013.029.013.059-.013.074l-1.862 1.288-.015.015c-.013.015-.013.03.016.03-.015 0 0 0 0 0zm-.396-.499l2.667-2.694.013-.014v-.016l-1.07-2.021c0-.015-.013-.015-.028-.015-.015 0-.015 0-.028.015l-1.86 4.554v.017c0 .013.016.028.029.028.014 0 .014 0 .014-.016l1.26-1.889c.015-.028.059-.028.072-.014l.118.072c.03.016.03.06.014.074l-1.244 1.903v.014c0 .016.014.03.029.03.014-.013.014-.028.014-.028zm-.542-.307l1.95-4.744c0-.017.013-.017.013-.03v-.03l-.102-.204c-.411-.806-1.188-1.407-2.169-1.435-.014 0-.029.014-.029.028v6.358c0 .014.016.027.029.027.015 0 .03-.014.03-.027l.425-2.242c0-.028.028-.059.058-.044l.133.03c.028 0 .043.043.043.074l-.425 2.239a.03.03 0 0 0 .028.028c.001 0 .016-.013.016-.028zM5.058 34.792a.61.61 0 0 1-.191-.265l-1.346-3.602H2.173L1.044 34.56c-.058.176-.116.277-.292.277H.68v.601h1.39v-.601h-.16c-.162 0-.234-.102-.176-.266l.176-.553h1.274l.205.553c.058.133 0 .266-.147.266h-.101v.601H5.19v-.545l-.132-.101zm-2.549-1.406h-.424l.38-1.229.469 1.229h-.425zm4.789-.174c.088 0 .104.089.104.158v.296h.776v-1.348a.973.973 0 0 0-.411-.087.831.831 0 0 0-.322.101 1.474 1.474 0 0 0-.366.308v-.408l-1.641.133v.541H5.6c.087 0 .161.072.161.159v1.671a.16.16 0 0 1-.161.157h-.175v.545H7.46v-.557h-.204a.165.165 0 0 1-.162-.162v-1.142c0-.207.118-.365.204-.365zm6.678 1.492v-1.712c0-.295-.395-.761-.952-.761-.453 0-.731.056-1.112.333-.221-.261-.483-.333-.894-.333-.293 0-.674.156-.806.333 0 .017-.059.044-.074.061v-.41l-1.655.13v.544h.162c.088 0 .161.072.161.161v1.669a.164.164 0 0 1-.161.162h-.161v.557h1.861v-.545l-.074-.012c-.088 0-.146-.076-.146-.162v-1.405a.31.31 0 0 1 .308-.31c.175 0 .307.133.307.31v1.405a.165.165 0 0 1-.161.162h-.088v.557h1.757v-.545l-.058-.012c-.06 0-.132-.076-.132-.162v-1.405a.31.31 0 0 1 .307-.31.31.31 0 0 1 .308.31v1.405a.165.165 0 0 1-.162.162h-.116v.557h1.859v-.557h-.117c-.1 0-.161-.076-.161-.177zm2.93-1.202c-.292-.145-.571-.16-.82-.188-.234-.032-.323-.145-.323-.264 0-.118.103-.249.323-.249.218 0 .336.131.336.438h.806v-.862a4.954 4.954 0 0 0-1.142-.133c-.542 0-1.07.164-1.274.365a.992.992 0 0 0-.307.762c0 .34.116.573.351.749.249.188.513.249.864.308.366.044.411.145.411.309 0 .177-.162.261-.396.261a.41.41 0 0 1-.321-.159.598.598 0 0 1-.088-.277v-.061h-.82v.938h.058c.279.044.79.116 1.2.116s1.04-.116 1.261-.32c.234-.193.38-.41.38-.882-.016-.398-.177-.687-.499-.851zm2.782-.613v-.557h-.498v-.994h-.644l-.015.057a1.47 1.47 0 0 1-.278.585 1.008 1.008 0 0 1-.602.365l-.058.02v.541h.278v1.874c0 .202.131.422.351.555.249.147.615.22.879.22.263 0 .467-.057.571-.116v-.557c-.074.012-.279.031-.366-.044-.103-.072-.118-.177-.118-.31v-1.639h.5zm3.06.777v-1.348a1.178 1.178 0 0 0-.409-.087.818.818 0 0 0-.32.101 1.253 1.253 0 0 0-.368.321v-.41l-1.64.121v.541h.161a.16.16 0 0 1 .16.159v1.671a.158.158 0 0 1-.16.157h-.161v.561h2.021v-.561h-.22a.158.158 0 0 1-.161-.157V33.59c0-.188.116-.353.204-.353.089 0 .104.087.104.164v.292h.789v-.027zm7.734 1.215c-.088 0-.145-.076-.145-.162v-1.715c0-.292-.44-.761-1.041-.761-.396 0-.702.164-.851.338-.015.027-.06.044-.072.072v-.41l-1.655.102v.544h.177c.088 0 .157.072.157.161v1.669a.16.16 0 0 1-.157.162h-.164v.54h1.863v-.54h-.061c-.088 0-.147-.076-.147-.162v-1.405c0-.163.164-.31.32-.31.164 0 .324.133.324.31v1.405a.164.164 0 0 1-.16.162h-.132v.54h1.948v-.54h-.204zm-5.713-2.65c-1.14 0-1.889.674-1.889 1.654 0 1.007.749 1.654 1.889 1.654 1.113 0 1.891-.647 1.891-1.654-.001-1.012-.806-1.654-1.891-1.654zm.412 2.313c-.028.248-.177.438-.396.438-.217 0-.364-.189-.394-.438-.016-.176-.043-.412-.043-.646 0-.232.012-.452.043-.673.029-.248.177-.441.394-.441.22 0 .381.193.396.441.016.188.044.484.044.704-.016.203-.029.423-.044.615zm7.397-2.356c-1.145 0-1.891.672-1.891 1.654 0 .877.601 1.655 1.418 1.655.413 0 .733-.076.938-.235v.394a.61.61 0 0 1-.205.439c-.129.119-.381.133-.584.119a.539.539 0 0 1-.382-.208c-.044-.056-.089-.22-.089-.351h-.877v.98c.174.044.469.104.746.133.321.031.688.044 1.013.044.261 0 .509-.044.717-.116.221-.061.466-.205.599-.324a.94.94 0 0 0 .353-.717v-3.368c-.661.017-1.259-.099-1.756-.099zm.452 2.208c-.031.251-.191.453-.425.453-.22 0-.38-.188-.411-.437-.013-.177-.044-.324-.044-.541 0-.237.031-.338.044-.558.031-.249.191-.44.411-.44.217 0 .394.191.425.428.014.188.014.377.014.585 0 .219 0 .333-.014.51zm2.14-1.227h-.133v-.616h.234c.159 0 .248.043.248.188 0 .119-.06.148-.147.165l.163.264h-.163l-.145-.264h-.057v.263zm.113-.368c.061 0 .089-.017.089-.072 0-.061-.072-.075-.116-.075h-.086v.147h.113zm-.012.629c-.31 0-.573-.204-.573-.57 0-.364.264-.572.573-.572.292 0 .572.208.572.572-.014.366-.28.57-.572.57zm0-1.01c-.221 0-.409.176-.409.439 0 .266.175.441.409.441.22 0 .408-.176.408-.441-.012-.263-.188-.439-.408-.439z" fill="#414042"/></svg>