<?xml version="1.0" encoding="utf-8"?>
<!-- Generator: Adobe Illustrator 21.1.0, SVG Export Plug-In . SVG Version: 6.00 Build 0)  -->
<svg version="1.1" id="Layer_1" xmlns="http://www.w3.org/2000/svg" xmlns:xlink="http://www.w3.org/1999/xlink" x="0px" y="0px"
	 viewBox="0 0 204 39" style="enable-background:new 0 0 204 39;" xml:space="preserve">
<style type="text/css">
	.st0{fill:#FFFFFF;}
	.st1{fill:#BF1C24;}
</style>
<g>
	<path d="M108.1,23.8h-1.2v-9h6.1v1.1h-4.9v2.8h4.3v1.1h-4.3V23.8z"/>
	<path d="M115.5,22.7h4.5v1.1h-5.7v-9h1.2V22.7z"/>
	<path d="M128.1,14.7v5.9c0,1.8-1.1,3.4-3.6,3.4c-2.4,0-3.4-1.6-3.4-3.2v-6h1.2v5.7c0,2,1.2,2.5,2.2,2.5c1.1,0,2.3-0.5,2.3-2.5v-5.7
		H128.1z"/>
	<path d="M131.4,23.8h-1.2v-9h1.2V23.8z"/>
	<path d="M134.7,15.8h2.2c1.6,0,2.6,1.1,2.6,3.4c0,2.3-1,3.5-2.6,3.5h-2.3V15.8z M133.5,23.8h3.5c2.9,0,3.8-2.6,3.8-4.6
		c0-2.6-1.4-4.4-3.7-4.4h-3.6V23.8z"/>
	<path d="M151,17.4c-0.1-1.4-1.2-1.8-2.2-1.8c-0.7,0-2,0.2-2,1.6c0,0.8,0.5,1,1,1.1l2.5,0.6c1.1,0.3,2,1,2,2.4
		c0,2.1-1.9,2.7-3.5,2.7c-1.6,0-2.3-0.5-2.7-0.9c-0.7-0.7-0.9-1.4-0.9-2.3h1.1c0,1.6,1.3,2.1,2.4,2.1c0.9,0,2.3-0.2,2.3-1.5
		c0-0.9-0.4-1.2-1.9-1.6l-1.8-0.4c-0.6-0.1-1.9-0.6-1.9-2.1c0-1.4,0.9-2.8,3-2.8c3.1,0,3.4,1.9,3.4,2.9H151z"/>
	<path d="M157.7,23.8h-1.2v-3.6l-3.3-5.4h1.4l2.5,4.3l2.5-4.3h1.4l-3.3,5.4V23.8z"/>
	<path d="M167.4,17.4c-0.1-1.4-1.2-1.8-2.2-1.8c-0.7,0-2,0.2-2,1.6c0,0.8,0.5,1,1,1.1l2.5,0.6c1.1,0.3,2,1,2,2.4
		c0,2.1-1.9,2.7-3.5,2.7c-1.6,0-2.3-0.5-2.7-0.9c-0.7-0.7-0.9-1.4-0.9-2.3h1.1c0,1.6,1.3,2.1,2.4,2.1c0.9,0,2.3-0.2,2.3-1.5
		c0-0.9-0.4-1.2-1.9-1.6l-1.8-0.4c-0.6-0.1-1.9-0.6-1.9-2.1c0-1.4,0.9-2.8,3-2.8c3.1,0,3.4,1.9,3.4,2.9H167.4z"/>
	<path d="M169.6,14.7h7.2v1.1h-3v7.9h-1.2v-7.9h-3V14.7z"/>
	<path d="M184.5,23.8H178v-9h6.4v1.1h-5.2v2.8h4.8v1.1h-4.8v3h5.3V23.8z"/>
	<path d="M193.3,23.8v-5.3c0-0.3,0-1.4,0-2.2h0l-2.5,7.6h-1.2l-2.5-7.6h0c0,0.8,0,2,0,2.2v5.3H186v-9h1.7l2.5,7.6h0l2.5-7.6h1.7v9
		H193.3z"/>
	<path d="M201.6,17.4c-0.1-1.4-1.2-1.8-2.2-1.8c-0.7,0-2,0.2-2,1.6c0,0.8,0.5,1,1,1.1l2.5,0.6c1.1,0.3,2,1,2,2.4
		c0,2.1-1.9,2.7-3.5,2.7c-1.6,0-2.3-0.5-2.7-0.9c-0.7-0.7-0.9-1.4-0.9-2.3h1.1c0,1.6,1.3,2.1,2.4,2.1c0.9,0,2.3-0.2,2.3-1.5
		c0-0.9-0.4-1.2-1.9-1.6l-1.8-0.4c-0.6-0.1-1.9-0.6-1.9-2.1c0-1.4,0.9-2.8,3-2.8c3.1,0,3.4,1.9,3.4,2.9H201.6z"/>
	<g>
		<path class="st0" d="M88.4,31.2c0.9,0,1.6,0.7,1.6,1.5c0,0.9-0.7,1.6-1.6,1.6c-0.9,0-1.6-0.7-1.6-1.6
			C86.8,31.9,87.5,31.2,88.4,31.2L88.4,31.2z M88.4,31.5c-0.7,0-1.2,0.6-1.2,1.2c0,0.7,0.5,1.2,1.2,1.2c0.7,0,1.2-0.5,1.2-1.2
			C89.6,32,89.1,31.5,88.4,31.5L88.4,31.5z M88.1,33.5h-0.4V32c0.1,0,0.3-0.1,0.6-0.1c0.3,0,0.4,0,0.5,0.1c0.1,0.1,0.1,0.2,0.1,0.3
			c0,0.2-0.1,0.3-0.3,0.4v0c0.2,0,0.2,0.2,0.3,0.4c0,0.2,0.1,0.3,0.1,0.4h-0.4c0-0.1-0.1-0.2-0.1-0.4c0-0.2-0.1-0.2-0.3-0.2h-0.2
			V33.5z M88.1,32.6h0.2c0.2,0,0.4-0.1,0.4-0.2c0-0.1-0.1-0.2-0.3-0.2c-0.1,0-0.2,0-0.2,0V32.6z"/>
	</g>
	<rect x="1" y="1.1" class="st0" width="92.7" height="36.5"/>
	<polygon class="st1" points="93.3,1.4 93.3,0.8 0.7,0.8 0.7,37.9 93.9,37.9 93.9,0.8 93.3,0.8 93.3,1.4 92.7,1.4 92.7,36.7 2,36.7 
		2,2 93.3,2 93.3,1.4 92.7,1.4 	"/>
	<polygon points="65.1,12.5 65.1,22.6 58.5,12.5 58.5,12.5 58.5,12.5 56,12.5 56,26.8 58.5,26.8 58.5,16.7 65.1,26.8 67.7,26.8 
		67.7,12.5 	"/>
	<path d="M50.3,26.8h2.5L48,12.5h-0.5h-2h-0.5l-5,14.4h2.5l0.8-2.3h6.3L50.3,26.8z M43.9,22.5l2.5-7.1l2.4,7.1H43.9z"/>
	<polygon points="75.4,24.6 75.4,20.4 81.3,20.4 81.3,18.2 75.4,18.2 75.4,14.6 83.3,14.6 83.3,12.5 75.4,12.5 74.1,12.5 72.9,12.5 
		72.9,26.8 74.1,26.8 75.4,26.8 83.9,26.8 83.9,24.6 	"/>
	<path d="M35.5,26.8h2.9l-3.8-6c1.9-0.5,3.2-2.2,3.2-4.1c0-2.4-2-4.3-4.5-4.3h-5.6v0h-1v14.5h2.5V21l2.8,0L35.5,26.8z M29.2,14.4
		l3.5,0c1.3,0,2.5,1,2.5,2.3c0,1.3-1.2,2.3-2.5,2.3h-3.5V14.4z"/>
	<g>
		<path d="M21.6,21.9c-0.6,1.7-2,2.9-3.7,2.9c-2.5,0-4.2-2.3-4.2-5.2c0-2.9,1.4-5.3,4.2-5.3c1.6,0,2.9,1.2,3.4,2.9l2.5-0.7
			c-0.8-2.4-2.5-4.5-5.9-4.5c-3.9,0-7,2.9-7,7.6c0,4.7,3.2,7.6,7,7.6c2.8,0,5-1.8,6.1-4.3L21.6,21.9z"/>
	</g>
</g>
</svg>
