<svg id="Layer_1" data-name="Layer 1" xmlns="http://www.w3.org/2000/svg" xmlns:xlink="http://www.w3.org/1999/xlink" viewBox="0 0 408.47 61.01"><defs><style>.cls-1{fill:none;}.cls-2{clip-path:url(#clip-path);}.cls-3{fill:#017041;}</style><clipPath id="clip-path" transform="translate(-78.77 -344.25)"><rect class="cls-1" x="78.77" y="344.25" width="408.47" height="61.01"/></clipPath></defs><title>mcelroylogo</title><g id="McElroy_-_RGB" data-name="McElroy - RGB"><g class="cls-2"><polygon class="cls-3" points="41.01 38.65 42.3 38.65 42.3 34.52 33.22 34.44 33.22 38.65 34.43 38.65 34.43 49.73 33.22 49.73 33.22 53.98 42.31 53.98 42.31 49.73 41.01 49.73 41.01 38.65"/><g class="cls-2"><path class="cls-3" d="M93.09,394H91.8v-7.13l4.46,11h3L103.64,387V394h-1.22v4.19h8.52V394h-1.38V382.74h1.37v-4.06h-8.52S99,387.53,99,387.2s-3.08-8.51-3.08-8.51H86.53v4.06h1V394h-1v4.19h6.57V394Z" transform="translate(-78.77 -344.25)"/><polygon class="cls-3" points="16.75 28.11 14.73 28.11 14.73 16.6 21.38 33.05 25.6 33.05 31.92 16.76 31.92 28.11 30.14 28.11 30.14 33.38 42.3 33.38 42.3 28.11 40.68 28.11 40.68 12.05 42.3 12.05 42.3 6.98 30.05 6.98 25.11 19.11 20.65 7.03 7.75 7.03 7.75 12.05 9.54 12.05 9.54 28.11 7.75 28.11 7.75 33.35 16.75 33.35 16.75 28.11"/><path class="cls-3" d="M78.77,404.22h49.79V345H78.77v59.18Zm47.76-2.31-45.51,0V347.22h45.51v54.7Z" transform="translate(-78.77 -344.25)"/><path class="cls-3" d="M132.91,404a2.53,2.53,0,1,1,2.55-2.53,2.55,2.55,0,0,1-2.55,2.53m0,0.46a3,3,0,1,0,0-6,3,3,0,1,0,0,6m0.44-2.9a0.89,0.89,0,0,0,1-.87,1,1,0,0,0-1.17-.88h-1.42v3.27h0.46v-1.52h0.55l1,1.52h0.55Zm-1.09-.45v-0.84h0.88c0.33,0,.79.06,0.79,0.39,0,0.52-.72.44-1.12,0.44h-0.55Z" transform="translate(-78.77 -344.25)"/><path class="cls-3" d="M148.28,345.19h19.9l7.33,31.05H176a70.6,70.6,0,0,1,1.34-7.85l6-23.2H203l8.74,59.12h-18.7l-2.61-32.38h-0.35a52.47,52.47,0,0,1-1.27,5.88l-7.69,26.51h-11.3l-6.92-25a44.41,44.41,0,0,1-1.19-7.37h-0.64c-0.14,2.35-.28,4.78-0.49,7.13l-2.26,25.25h-18.7Z" transform="translate(-78.77 -344.25)"/><path class="cls-3" d="M243.27,380.71c-1.91-1.8-4.1-3.45-6.71-3.45-3.32,0-5.71,2.43-5.71,6.2,0,3.29,2.4,6,5.36,6,2.81,0,4.94-1.58,7.06-3.22l-0.78,17.1a27.8,27.8,0,0,1-9.18,2c-12.13,0-20.82-7.61-20.82-21.57,0-12.31,8.12-22,19.34-22a34.05,34.05,0,0,1,11.44,2.12v16.85Z" transform="translate(-78.77 -344.25)"/><polygon class="cls-3" points="168.45 0.95 204.23 0.95 204.23 17.09 187.93 17.09 187.93 22.74 202.82 22.74 202.82 38.11 187.93 38.11 187.93 43.91 204.8 43.91 204.8 60.06 168.45 60.06 168.45 0.95"/><polygon class="cls-3" points="209.24 0.95 228.58 0.95 228.58 41.09 244.81 41.09 244.81 60.06 209.24 60.06 209.24 0.95"/><path class="cls-3" d="M328.87,345.19h23.36c12,0,22.16,5.64,22.16,20.54,0,8.95-3.11,12.71-10.3,15.38v0.47a14.3,14.3,0,0,1,3.25,3.53l11.57,19.21H356.62l-8.47-19h-0.35v19H328.87V345.19Zm18.92,26.19h1.34c3.18,0,6.36-.55,6.36-4.94,0-4.55-2.9-5.1-6.22-5.1h-1.48v10Z" transform="translate(-78.77 -344.25)"/><path class="cls-3" d="M437.29,374.91c0,19-13.2,30.35-29.43,30.35s-29.44-11.37-29.44-30.35c0-18.59,13.27-30.67,29.44-30.67s29.43,12.07,29.43,30.67m-39.39.31c0,6.74,4.1,11.37,10,11.37s9.94-4.62,9.94-11.37c0-6.27-3.81-11.52-9.94-11.52s-10,5.25-10,11.52" transform="translate(-78.77 -344.25)"/><path class="cls-3" d="M453.44,345.19l5.93,15.45h0.57c0.56-1.89,1.06-3.77,1.76-5.58l3.81-9.87h21.74L469,378.83v25.48H450.13V378.83l-18.56-33.63h21.87Z" transform="translate(-78.77 -344.25)"/></g></g></g></svg>