<svg xmlns="http://www.w3.org/2000/svg" xmlns:xlink="http://www.w3.org/1999/xlink" width="240" height="65">
  <path clip-path="url(#a)" fill="url(#b)" d="m218.9 10.4 37.3 37.4-37.3 37.3-37.4-37.3z"/>
  <path clip-path="url(#c)" fill="url(#d)" d="m218.9 51.3 36-36.1-36-36-36.1 36z"/>
  <path clip-path="url(#e)" fill="#4b4b4a" d="M138.6 30.2h-10.2c.5-3.7 1.7-4.9 5.3-4.9 3.5 0 4.8.9 4.9 4.9m-5.4-11.5c-8.4 0-13.7 3.5-13.7 15.2 0 12 6.1 15.6 14.3 15.6 3.3 0 7.6-.6 10.6-1.6l-1.3-6.7c-2.2.6-6 1-8.1 1-4.2 0-6.3-.9-6.4-5.5h17.9c.6-15-3.6-18-13.3-18"/>
  <path clip-path="url(#f)" fill="#4b4b4a" d="M20.3 36.4c-1.7-6.4-6.1-20.2-8.7-27.2-.2-.6-1-1.7-2-1.7H0v.4s1.9.2 3.2 4.3c2.7 8.3 9.2 28.7 11.4 36.4h10.8c3.8-9.3 10.8-31.9 13.5-41.2h-9.7c-1.9 6.8-6.6 22.3-8.9 29"/>
  <path clip-path="url(#g)" fill="#4b4b4a" d="M71 7.5h-8.8v32.9c0 10.4 10.1 8.8 10.1 8.8-1.2-2.4-1.3-6.2-1.3-9V7.5z"/>
  <path clip-path="url(#h)" fill="#4b4b4a" d="M83.1 27c1.1-.3 2.6-.5 3.8-.5 4 0 4.8 1.4 4.8 6.7v15.5h8.7V32.6c0-2.2-.2-4-.6-5.5 1.4-.3 3.3-.5 4.4-.5 4 0 4.8 1.4 4.8 6.7v15.5h8.7V32.6c0-10.5-3.6-13.9-11.7-13.9-3.3 0-7 .8-10.1 1.9-1.8-1.3-4.2-1.9-7.3-1.9-5.2 0-10.7 1.3-14.5 2.6v27.4h8.8V27h.2z"/>
  <path clip-path="url(#i)" fill="#4b4b4a" d="M169.8 27v-7.5h-9.1v-4.9c0-4.4.6-7.1.6-7.1s-9.4 1.2-9.4 7.6v4.3h-4.7v7.5h4.7v11.8c0 8.7 3.6 10.7 10 10.7 3.1 0 6.6-.6 8.8-1.5l-1.4-6.7c-1.4.5-2.9.8-4.7.8-3.1 0-3.9-1.2-3.9-4.2V27h9.1z"/>
  <path clip-path="url(#j)" fill="#4b4b4a" d="M51.2 42.2c-1.4.5-3.2.8-4.8.8-3.4 0-4.2-.5-4.2-3.5 0-2.9 1.1-3.3 4.3-3.3 1.8 0 3.4.1 4.7.4v5.6zm8.3 5V30.1c0-8.7-4.1-11.3-12.8-11.3-4.3 0-5.5.2-8.8 1l-2.5 7.4c2.5-.7 5.9-1.3 9.2-1.3 5.7 0 6.6 1.1 6.6 5.2-2.2-.5-4.4-.7-6.6-.7-7 0-11.4 1.3-11.4 9.5 0 7.6 2.9 9.7 12.5 9.7 4.3-.1 9.9-1 13.8-2.4"/>
  <path clip-path="url(#k)" fill="url(#l)" d="m230.1 30.8-39 39-39-39 39-38.9z"/>
  <path clip-path="url(#m)" fill="#4b4b4a" d="M166.5 60.7c0 2.3-.7 2.7-2.3 2.7h-1.5v-5.5h1.5c1.6.1 2.3.5 2.3 2.8m1.5 0c0-3.1-1.4-3.9-3.8-3.9h-3v7.9h3c2.5 0 3.8-1 3.8-4M153.3 58h-2.5v2.4h2.5c.8 0 1.2-.4 1.2-1.2-.1-.9-.4-1.2-1.2-1.2m.5 3.2c.8.2 1.2.6 2.9 3.5H155c-1.4-2.6-2.1-3.1-2.9-3.1h-1.3v3.1h-1.5v-7.9h4.3c1.9 0 2.4 1.1 2.4 2.3 0 1.1-.5 2-2.2 2.1m-11.9.2h-2.7c.4-1.2.8-2.3 1.3-3.4h.4c.2 1.1.5 2.2 1 3.4m2.8 3.3c-1-2.1-2-5.3-2.8-7.9h-2.4c-1 2.5-2.1 5.4-2.9 7.9h1.5c.2-.7.4-1.4.7-2.1h3.5c.3.8.6 1.5.8 2.1h1.6zm-19.7 0h-1.9c-.7-2.7-1.6-5.5-2.5-7.9h1.6c.7 1.8 1.4 4.2 2 6.4.6-1.7 1.5-4.9 1.9-6.4h1.6c.6 1.7 1.3 4.5 1.7 6.4.8-2.1 1.5-4.3 2-6.4h1.6c-.7 2.6-1.6 5.4-2.7 7.9h-1.9c-.4-1.9-1.1-4.7-1.5-6-.6 1.8-1.3 4.3-1.9 6m-10.3-5.5c0 .8-.4 1.2-1.2 1.2H111V58h2.5c.8 0 1.2.3 1.2 1.2m1.6-.1c0-1.2-.5-2.3-2.4-2.3h-4.3v7.9h1.5v-3.1h1.3c.9 0 1.5.4 2.9 3.1h1.7c-1.7-2.9-2.2-3.3-2.9-3.5 1.6-.1 2.2-1 2.2-2.1m-15.7-1.3c-1.6 0-2.1.4-2.1 2.9 0 2.4.5 2.9 2.1 2.9s2.1-.5 2.1-2.9c0-2.5-.5-2.9-2.1-2.9m0 7.1c-2.5 0-3.7-1-3.7-4.2s1.2-4.1 3.7-4.1 3.7.9 3.7 4.1c-.1 3.2-1.2 4.2-3.7 4.2m-14-.2h1.5v-3.2h3.5v-1.2h-3.5V58h4.5v-1.3h-6v8z"/>
  <defs>
    <clipPath id="a">
      <use xlink:href="#n"/>
    </clipPath>
    <clipPath id="c">
      <use xlink:href="#o"/>
    </clipPath>
    <clipPath id="e">
      <use xlink:href="#p"/>
    </clipPath>
    <clipPath id="f">
      <use xlink:href="#q"/>
    </clipPath>
    <clipPath id="g">
      <use xlink:href="#r"/>
    </clipPath>
    <clipPath id="h">
      <use xlink:href="#s"/>
    </clipPath>
    <clipPath id="i">
      <use xlink:href="#t"/>
    </clipPath>
    <clipPath id="j">
      <use xlink:href="#u"/>
    </clipPath>
    <clipPath id="k">
      <use xlink:href="#v"/>
    </clipPath>
    <clipPath id="m">
      <use xlink:href="#w"/>
    </clipPath>
    <path id="n" d="m220.4 31.6-22.7 22.7 5 5c4.8 4.8 9.6 0 9.6 0L240 31.6h-19.6z"/>
    <path id="o" d="m202.8 2.5-5 5 22.6 22.6H240L212.3 2.5s-2.1-2.1-5-2.1c-1.4-.1-2.9.5-4.5 2.1"/>
    <path id="p" d="M0 .2h240v64.5H0z"/>
    <path id="q" d="M0 .2h240v64.5H0z"/>
    <path id="r" d="M0 .2h240v64.5H0z"/>
    <path id="s" d="M0 .2h240v64.5H0z"/>
    <path id="t" d="M0 .2h240v64.5H0z"/>
    <path id="u" d="M0 .2h240v64.5H0z"/>
    <path id="v" d="m175.1 31.6 22.2 22.2 9.8-9.8-12.4-12.4h-19.6zm0-1.5h19.6l12.5-12.5-9.8-9.8-22.3 22.3z"/>
    <path id="w" d="M0 .2h240v64.5H0z"/>
    <linearGradient id="b" gradientUnits="userSpaceOnUse" x1="-224.08" x2="-222.76" gradientTransform="rotate(45 -5856.441 1150.501) scale(10.49)">
      <stop stop-color="#429143"/>
      <stop offset=".088" stop-color="#429143"/>
      <stop offset=".321" stop-color="#479b46"/>
      <stop offset=".712" stop-color="#4ea94a"/>
      <stop offset=".986" stop-color="#51af4c"/>
      <stop offset="1" stop-color="#51af4c"/>
    </linearGradient>
    <linearGradient id="d" gradientUnits="userSpaceOnUse" x1="-179.25" x2="-177.93" gradientTransform="scale(10.49 -10.49) rotate(45 -474.682 75.045)">
      <stop stop-color="#429143"/>
      <stop offset=".312" stop-color="#49a047"/>
      <stop offset=".629" stop-color="#4fab4a"/>
      <stop offset=".903" stop-color="#51af4c"/>
      <stop offset="1" stop-color="#51af4c"/>
    </linearGradient>
    <linearGradient id="l" gradientUnits="userSpaceOnUse" x1="-196.01" x2="-194.69" gradientTransform="rotate(135 -4079.119 -3231.172) scale(24.553)">
      <stop stop-color="#e7e7e7"/>
      <stop offset="1" stop-color="#d0d1d1"/>
    </linearGradient>
  </defs>
</svg>